<svg xmlns="http://www.w3.org/2000/svg" viewBox="0 0 98 96" role="img" aria-label="GitHub">
  <path fill="#000000" fill-rule="evenodd" clip-rule="evenodd" d="M49 0C21.9 0 0 22.2 0 49.6c0 21.9 14 40.5 33.4 47.1 2.4.5 3.3-1.1 3.3-2.4 0-1.2 0-5.1-.1-9.3-13.6 3-16.5-5.9-16.5-5.9-2.2-5.8-5.4-7.3-5.4-7.3-4.5-3.1.3-3 .3-3 4.9.3 7.5 5.1 7.5 5.1 4.4 7.6 11.5 5.4 14.3 4.1.4-3.2 1.7-5.4 3.1-6.6-10.8-1.2-22.2-5.5-22.2-24.5 0-5.4 1.9-9.8 5-13.3-.5-1.3-2.2-6.3.5-13.1 0 0 4.1-1.3 13.5 5.1 3.9-1.1 8.1-1.6 12.3-1.6 4.2 0 8.4.6 12.3 1.6 9.4-6.4 13.5-5.1 13.5-5.1 2.7 6.8 1 11.8.5 13.1 3.1 3.5 5 7.9 5 13.3 0 19.1-11.4 23.2-22.3 24.5 1.8 1.6 3.3 4.6 3.3 9.2 0 6.6-.1 12-.1 13.6 0 1.3.9 2.9 3.4 2.4C84 90.1 98 71.5 98 49.6 98 22.2 76.1 0 49 0Z"/>
</svg>
